<?xml version="1.0" encoding="UTF-8" standalone="no"?>
<!-- Created with Inkscape (http://www.inkscape.org/) -->

<svg
   width="720"
   height="720"
   viewBox="0 0 190.5 190.5"
   version="1.1"
   id="svg5"
   inkscape:version="1.2.2 (b0a8486541, 2022-12-01)"
   sodipodi:docname="settings.svg"
   inkscape:export-filename="../title/settings.png"
   inkscape:export-xdpi="96"
   inkscape:export-ydpi="96"
   xmlns:inkscape="http://www.inkscape.org/namespaces/inkscape"
   xmlns:sodipodi="http://sodipodi.sourceforge.net/DTD/sodipodi-0.dtd"
   xmlns="http://www.w3.org/2000/svg"
   xmlns:svg="http://www.w3.org/2000/svg">
  <sodipodi:namedview
     id="namedview7"
     pagecolor="#000000"
     bordercolor="#666666"
     borderopacity="1.0"
     inkscape:showpageshadow="2"
     inkscape:pageopacity="0"
     inkscape:pagecheckerboard="0"
     inkscape:deskcolor="#d1d1d1"
     inkscape:document-units="mm"
     showgrid="true"
     inkscape:zoom="0.90057552"
     inkscape:cx="348.66593"
     inkscape:cy="353.66273"
     inkscape:window-width="1920"
     inkscape:window-height="1006"
     inkscape:window-x="0"
     inkscape:window-y="0"
     inkscape:window-maximized="1"
     inkscape:current-layer="layer1">
    <inkscape:grid
       type="axonomgrid"
       id="grid2414"
       originx="95.25"
       originy="95.25"
       units="px"
       spacingy="1.5875"
       empspacing="5"
       gridanglex="30"
       gridanglez="30" />
  </sodipodi:namedview>
  <defs
     id="defs2" />
  <g
     inkscape:label="Layer 1"
     inkscape:groupmode="layer"
     id="layer1">
    <path
       style="fill:#0000ff;fill-opacity:1;stroke:none;stroke-width:0.264583px;stroke-linecap:butt;stroke-linejoin:miter;stroke-opacity:1"
       d="m 95.250001,39.687499 -13.747998,7.9375 v 10.41797 a 39.6875,39.6875 0 0 0 -11.600326,6.69726 l -9.022188,-5.20898 -13.747998,7.9375 v 15.875 l 9.022188,5.20898 A 39.6875,39.6875 0 0 0 55.562501,95.25 a 39.6875,39.6875 0 0 0 0.591178,6.69727 l -9.022188,5.20898 v 15.875 l 13.747998,7.9375 9.022188,-5.20898 a 39.6875,39.6875 0 0 0 11.600326,6.69726 V 142.875 l 13.747998,7.9375 13.747999,-7.9375 v -10.41797 a 39.6875,39.6875 0 0 0 11.60032,-6.69726 l 9.02219,5.20898 13.748,-7.9375 v -15.875 l -9.02219,-5.20898 A 39.6875,39.6875 0 0 0 134.9375,95.25 39.6875,39.6875 0 0 0 134.36337,88.542919 l 9.00514,-5.19917 v -15.875 l -13.748,-7.9375 -9.00307,5.19762 A 39.6875,39.6875 0 0 0 108.998,58.022299 v -10.3973 z m 0,31.75 A 23.8125,23.8125 0 0 1 119.0625,95.25 23.8125,23.8125 0 0 1 95.250001,119.0625 23.8125,23.8125 0 0 1 71.437501,95.25 23.8125,23.8125 0 0 1 95.250001,71.437499 Z"
       id="path1093" />
    <path
       style="fill:#ff0000;fill-opacity:1;stroke:none;stroke-width:0.264583px;stroke-linecap:butt;stroke-linejoin:miter;stroke-opacity:1"
       d="M 95.250001,-9.9999997e-7 12.760979,47.624999 V 142.875 L 95.250001,190.5 177.73902,142.875 V 47.624999 Z m 0,15.87499999999997 68.741019,39.6875 V 134.9375 L 95.250001,174.625 26.509494,134.9375 V 55.562499 Z"
       id="path504" />
  </g>
</svg>
