<?xml version="1.0" encoding="UTF-8" standalone="no"?>
<!-- Created with Inkscape (http://www.inkscape.org/) -->

<svg
   width="720"
   height="720"
   viewBox="0 0 190.5 190.5"
   version="1.1"
   id="svg5"
   inkscape:version="1.2.2 (b0a8486541, 2022-12-01)"
   sodipodi:docname="main_menu_items.svg"
   inkscape:export-filename="../title/exit.png"
   inkscape:export-xdpi="96"
   inkscape:export-ydpi="96"
   xmlns:inkscape="http://www.inkscape.org/namespaces/inkscape"
   xmlns:sodipodi="http://sodipodi.sourceforge.net/DTD/sodipodi-0.dtd"
   xmlns="http://www.w3.org/2000/svg"
   xmlns:svg="http://www.w3.org/2000/svg">
  <sodipodi:namedview
     id="namedview7"
     pagecolor="#000000"
     bordercolor="#666666"
     borderopacity="1.0"
     inkscape:showpageshadow="2"
     inkscape:pageopacity="0"
     inkscape:pagecheckerboard="0"
     inkscape:deskcolor="#d1d1d1"
     inkscape:document-units="mm"
     showgrid="true"
     inkscape:zoom="1.0736111"
     inkscape:cx="1875.912"
     inkscape:cy="360"
     inkscape:window-width="1920"
     inkscape:window-height="1006"
     inkscape:window-x="0"
     inkscape:window-y="0"
     inkscape:window-maximized="1"
     inkscape:current-layer="layer1">
    <inkscape:grid
       type="axonomgrid"
       id="grid2414"
       originx="95.25"
       originy="95.25"
       units="px"
       spacingy="1.5875"
       empspacing="5" />
    <inkscape:page
       x="0"
       y="0"
       width="190.5"
       height="190.5"
       id="page614"
       inkscape:label="play"
       inkscape:export-filename="../image/main_menu_icons/play.png"
       inkscape:export-xdpi="96"
       inkscape:export-ydpi="96" />
    <inkscape:page
       x="200.5"
       y="0"
       width="190.5"
       height="190.5"
       id="page616"
       inkscape:label="exit" />
    <inkscape:page
       x="401"
       y="0"
       width="190.5"
       height="190.5"
       id="page618"
       inkscape:label="settings" />
  </sodipodi:namedview>
  <defs
     id="defs2" />
  <g
     inkscape:label="Layer 1"
     inkscape:groupmode="layer"
     id="layer1">
    <g
       id="g721"
       transform="translate(200.5)">
      <path
         id="path236"
         style="fill:#ff0000;fill-opacity:1;stroke:none;stroke-width:1.852;stroke-linecap:round;stroke-linejoin:round;stroke-dasharray:none;stroke-opacity:1"
         d="M 95.250001,190.5 177.73902,142.875 V 47.625002 L 95.250001,1.9999999e-6 12.760982,47.625002 V 142.875 Z m 0,-15.875 -68.741019,-39.6875 V 55.562502 l 68.741019,-39.6875 68.740509,39.6875 V 134.9375 Z" />
      <path
         id="path4295"
         style="fill:#0000ff;fill-opacity:1;stroke:none;stroke-width:0.264583px;stroke-linecap:butt;stroke-linejoin:miter;stroke-opacity:1"
         d="m 150.24261,134.9375 6.87408,-3.96875 v -7.9375 L 108.99852,95.25 157.11669,67.46875 v -7.9375 L 150.24261,55.5625 95.25,87.3125 40.25739,55.5625 33.38331,59.53125 v 7.9375 L 81.502,95.25 33.38331,123.03125 v 7.9375 l 6.87408,3.96875 54.99261,-31.75 z"
         sodipodi:nodetypes="ccccccccccccccccc" />
    </g>
    <g
       id="g717"
       transform="translate(-178.72599,-142.875)">
      <path
         id="path236-3"
         style="fill:#ff0000;fill-opacity:1;stroke:none;stroke-width:1.852;stroke-linecap:round;stroke-linejoin:round;stroke-dasharray:none;stroke-opacity:1"
         d="M 273.97599,142.875 191.48697,190.5 v 95.25 l 82.48902,47.625 82.48902,-47.625 V 190.5 Z m 0,15.875 68.74102,39.6875 v 79.375 L 273.97599,317.5 205.23548,277.8125 v -79.375 z"
         inkscape:transform-center-x="1.8666666e-06"
         sodipodi:nodetypes="cccccccccccccc" />
      <path
         style="fill:#0000ff;fill-opacity:1;stroke:none;stroke-width:0.264583px;stroke-linecap:butt;stroke-linejoin:miter;stroke-opacity:1"
         d="m 232.73153,198.4375 96.23707,39.6875 -96.23707,39.6875 z"
         id="path1184"
         sodipodi:nodetypes="cccc" />
    </g>
    <g
       id="g910"
       transform="translate(-25.19275,-95.25)">
      <path
         style="fill:#0000ff;fill-opacity:1;stroke:none;stroke-width:0.264583px;stroke-linecap:butt;stroke-linejoin:miter;stroke-opacity:1"
         d="m 521.44275,134.9375 -13.748,7.9375 v 10.41797 a 39.6875,39.6875 0 0 0 -11.60032,6.69726 l -9.02219,-5.20898 -13.748,7.9375 v 15.875 l 9.02219,5.20898 a 39.6875,39.6875 0 0 0 -0.59118,6.69727 39.6875,39.6875 0 0 0 0.59118,6.69727 l -9.02219,5.20898 v 15.875 l 13.748,7.9375 9.02219,-5.20898 a 39.6875,39.6875 0 0 0 11.60032,6.69726 V 238.125 l 13.748,7.9375 13.748,-7.9375 v -10.41797 a 39.6875,39.6875 0 0 0 11.60032,-6.69726 l 9.02219,5.20898 13.748,-7.9375 v -15.875 l -9.02219,-5.20898 a 39.6875,39.6875 0 0 0 0.59118,-6.69727 39.6875,39.6875 0 0 0 -0.57413,-6.70708 l 9.00514,-5.19917 v -15.875 l -13.748,-7.9375 -9.00307,5.19762 A 39.6875,39.6875 0 0 0 535.19075,153.2723 V 142.875 Z m 0,31.75 a 23.8125,23.8125 0 0 1 23.8125,23.8125 23.8125,23.8125 0 0 1 -23.8125,23.8125 23.8125,23.8125 0 0 1 -23.8125,-23.8125 23.8125,23.8125 0 0 1 23.8125,-23.8125 z"
         id="path1093" />
      <path
         style="fill:#ff0000;fill-opacity:1;stroke:none;stroke-width:0.264583px;stroke-linecap:butt;stroke-linejoin:miter;stroke-opacity:1"
         d="M 521.44275,95.249999 438.95373,142.875 v 95.25 l 82.48902,47.625 82.48902,-47.625 v -95.25 z m 0,15.875001 68.74102,39.6875 v 79.375 l -68.74102,39.6875 -68.74051,-39.6875 v -79.375 z"
         id="path504" />
    </g>
  </g>
</svg>
